#!OML:ASF H:\MichaelJackson\Top Level 1\Subject 1\Session 1\male.ASF
:FULLY-SPECIFIED
:DEGREES
1570
root -2.18721 16.8374 29.3154 -346.382 -30.7372 2.91488
lowerback 2.55451 1.33183 -2.23104
upperback 0.662892 1.71377 -0.0526844
thorax -0.815701 0.85853 1.13995
lowerneck -9.99587 -2.79604 -0.717437
upperneck 18.6061 -3.87509 0.516842
head 7.37993 -1.87529 -0.0737833
rclavicle -2.3556e-014 -8.74653e-015
rhumerus -194.037 164.681 -263.821
rradius 107.626
rwrist -49.9787
rhand -23.3264 -35.4188
rfingers 7.12502
rthumb 3.12786 -425.376
lclavicle -2.3556e-014 -8.74653e-015
lhumerus -69.5452 -25.0134 104.018
lradius 101.543
lwrist 36.441
lhand -22.9278 39.6135
lfingers 7.12502
lthumb 3.51285 69.5643
rfemur -43.9479 -3.87476 19.6522
rtibia 47.0124
rfoot -11.2664 -4.32902
rtoes -1.10183
lfemur -23.4061 2.85221 -22.4703
ltibia 42.4159
lfoot -23.9334 -3.87667
ltoes 23.0654
1571
root -2.2229 16.8516 29.3336 -346.253 -30.6355 2.53929
lowerback 2.56462 1.27383 -1.92845
upperback 0.611994 1.6448 0.0417686
thorax -0.865321 0.824614 1.06877
lowerneck -9.99254 -2.75302 -0.680354
upperneck 18.6574 -3.82904 0.53998
head 7.39551 -1.84884 -0.0685791
rclavicle -3.63776e-014 4.77083e-015
rhumerus -194.777 164.609 -264.281
rradius 107.318
rwrist -49.875
rhand -23.8037 -35.538
rfingers 7.12502
rthumb 2.66694 -425.501
lclavicle -3.63776e-014 4.77083e-015
lhumerus -68.5278 -25.7766 103.63
lradius 103.154
lwrist 37.1992
lhand -22.509 38.8478
lfingers 7.12502
lthumb 3.91721 68.7916
rfemur -43.1751 -3.83072 20.0369
rtibia 46.1823
rfoot -11.8426 -4.1973
rtoes 0.512517
lfemur -24.0311 3.26051 -22.1191
ltibia 43.8479
lfoot -23.2796 -3.91198
ltoes 22.2079
1572
root -2.25904 16.8681 29.3519 -346.148 -30.4534 2.16264
lowerback 2.58857 1.20354 -1.60568
upperback 0.57567 1.56011 0.140737
thorax -0.907331 0.782381 0.991344
lowerneck -9.99591 -2.7217 -0.654849
upperneck 18.713 -3.80066 0.581895
head 7.41446 -1.8298 -0.0571415
rclavicle 2.45499e-014 -9.14409e-015
rhumerus -195.582 164.533 -264.729
rradius 107
rwrist -49.7262
rhand -24.323 -35.7075
rfingers 7.12502
rthumb 2.16538 -425.676
lclavicle 2.45499e-014 -9.14409e-015
lhumerus -67.3777 -26.5753 103.149
lradius 104.747
lwrist 37.9053
lhand -21.8978 38.0589
lfingers 7.12502
lthumb 4.50748 67.991
rfemur -42.3281 -3.83958 20.4489
rtibia 45.2701
rfoot -12.3844 -4.13393
rtoes 2.14666
lfemur -24.7768 3.7255 -21.7709
ltibia 45.4874
lfoot -22.4231 -4.02102
ltoes 21.44
1573
root -2.29572 16.8865 29.3698 -346.057 -30.2061 1.76586
lowerback 2.62853 1.12706 -1.25933
upperback 0.553676 1.46807 0.2515
thorax -0.94377 0.736075 0.912929
lowerneck -10.0073 -2.70135 -0.641
upperneck 18.7706 -3.78727 0.634397
head 7.43607 -1.81763 -0.0418564
rclavicle 3.26007e-014 -1.19271e-015
rhumerus -196.444 164.445 -265.159
rradius 106.674
rwrist -49.5456
rhand -24.8943 -35.9573
rfingers 7.12502
rthumb 1.61365 -425.931
lclavicle 3.26007e-014 -1.19271e-015
lhumerus -66.0765 -27.3894 102.569
lradius 106.313
lwrist 38.5629
lhand -21.0849 37.2915
lfingers 7.12502
lthumb 5.29242 67.2054
rfemur -41.4271 -3.85679 20.8997
rtibia 44.292
rfoot -12.8439 -4.17768
rtoes 3.6448
lfemur -25.6551 4.25918 -21.4092
ltibia 47.3389
lfoot -21.3346 -4.18544
ltoes 20.7902
1574
root -2.33292 16.9066 29.3872 -345.977 -29.9305 1.33667
lowerback 2.68499 1.05758 -0.890852
upperback 0.54722 1.38635 0.375804
thorax -0.974269 0.694562 0.835532
lowerneck -10.0202 -2.69431 -0.634922
upperneck 18.822 -3.7913 0.690709
head 7.45631 -1.81389 -0.0256213
rclavicle -1.30204e-014 1.07344e-014
rhumerus -197.348 164.341 -265.563
rradius 106.329
rwrist -49.3406
rhand -25.4683 -36.2748
rfingers 7.12502
rthumb 1.05932 -426.252
lclavicle -1.30204e-014 1.07344e-014
lhumerus -64.6085 -28.2023 101.887
lradius 107.842
lwrist 39.1992
lhand -20.0978 36.5669
lfingers 7.12502
lthumb 6.2454 66.4548
rfemur -40.4875 -3.83614 21.391
rtibia 43.2671
rfoot -13.1908 -4.34103
rtoes 4.89898
lfemur -26.6643 4.87979 -21.0281
ltibia 49.3972
lfoot -19.993 -4.37846
ltoes 20.353
1575
root -2.37046 16.9276 29.4027 -345.881 -29.6487 0.862695
lowerback 2.74944 1.00063 -0.508129
upperback 0.547921 1.32236 0.518796
thorax -1.003 0.661684 0.768657
lowerneck -10.0279 -2.69601 -0.628977
upperneck 18.8655 -3.80494 0.73607
head 7.47286 -1.81572 -0.0136542
rclavicle -2.74323e-014 5.1684e-015
rhumerus -198.282 164.21 -265.942
rradius 105.967
rwrist -49.1304
rhand -26.071 -36.6704
rfingers 7.12502
rthumb 0.477218 -426.65
lclavicle -2.74323e-014 5.1684e-015
lhumerus -62.9635 -28.9855 101.102
lradius 109.334
lwrist 39.8693
lhand -18.9966 35.9226
lfingers 7.12502
lthumb 7.30843 65.7764
rfemur -39.5539 -3.74254 21.9292
rtibia 42.2169
rfoot -13.4028 -4.62828
rtoes 5.89866
lfemur -27.8325 5.59198 -20.6183
ltibia 51.6486
lfoot -18.3677 -4.57497
ltoes 20.24
